<svg xmlns="http://www.w3.org/2000/svg" viewBox="0 0 1747.43 1919.91"><defs><style>.cls-1{fill:#fff;}</style></defs><title>アセット 6</title><g id="レイヤー_2" data-name="レイヤー 2"><g id="レイヤー_1-2" data-name="レイヤー 1"><path class="cls-1" d="M329,1288.42s-257.39-172-307.14-392C-115.76,287.65,427.68-45.24,761.83,5c438,65.81,536.49,550.84,206.9,1160.08-618.21,1256.32,413.33,576.37,203.54-12.69,134.31-73.31,105,6.78,119,97.49,55.65-40.55,170.1-194.65,456.21-245-48.38,136.36-153.35,357.06-153.35,357.06-169.38-61.8-339.77-82.82-213.36,270.3-166.63,101.43-129.56-4.81-143.16-141.76-30,316.68-392.2,563.7-475.27,348.34C611.8,1448.62,859.68,280.2,372.86,330.56,0,369.13-127.92,1137.77,584.61,1034.84Z"/><circle class="cls-1" cx="1186.16" cy="1026.51" r="68.15"/></g></g></svg>