<svg xmlns="http://www.w3.org/2000/svg" viewBox="0 0 1748.69 1920.91"><defs><radialGradient id="a" cx="683.51" cy="914.07" fx="370.469" fy="1207.617" r="709.76" gradientUnits="userSpaceOnUse"><stop offset="0" stop-color="#1f2a64"/><stop offset="1" stop-color="#121836"/></radialGradient></defs><g data-name="レイヤー 2"><g data-name="レイヤー 1" stroke="#231815" stroke-miterlimit="10"><path d="M329.53 1288.92s-257.39-172-307.14-392C-115.26 288.15 428.18-44.74 762.33 5.47c438 65.81 536.49 550.84 206.9 1160.08-618.21 1256.32 413.33 576.37 203.54-12.69 134.31-73.31 105 6.78 119 97.49 55.65-40.55 170.1-194.65 456.21-245-48.38 136.36-153.35 357.06-153.35 357.06-169.38-61.8-339.77-82.82-213.36 270.3-166.63 101.43-129.56-4.81-143.16-141.76-30 316.68-392.2 563.7-475.27 348.34C612.3 1449.12 860.18 280.7 373.36 331.06.5 369.63-127.42 1138.27 585.11 1035.34z" fill="url(#a)"/><circle cx="1186.66" cy="1027.01" r="68.15" fill="#121836"/></g></g></svg>